<?xml version="1.0" standalone="no"?>
<!DOCTYPE svg PUBLIC "-//W3C//DTD SVG 20010904//EN"
 "http://www.w3.org/TR/2001/REC-SVG-20010904/DTD/svg10.dtd">
<svg version="1.0" xmlns="http://www.w3.org/2000/svg"
 width="700.000000pt" height="700.000000pt" viewBox="0 0 700.000000 700.000000"
 preserveAspectRatio="xMidYMid meet">
<metadata>
Created by potrace 1.14, written by Peter Selinger 2001-2017
</metadata>
<g transform="translate(0.000000,700.000000) scale(0.100000,-0.100000)"
fill="#000000" stroke="none">
<path d="M3457 5924 c-1 -1 -78 -5 -172 -8 -93 -4 -183 -8 -200 -10 -16 -2
-66 -6 -110 -10 -44 -4 -92 -9 -106 -12 -14 -2 -41 -6 -60 -8 -72 -10 -117
-17 -192 -32 -42 -9 -88 -17 -101 -20 -47 -8 -213 -53 -286 -77 -254 -84 -441
-201 -504 -318 -124 -227 140 -454 691 -594 35 -9 73 -18 85 -20 13 -3 34 -7
48 -10 14 -3 36 -7 50 -10 14 -3 48 -9 75 -15 104 -20 344 -47 520 -57 210
-12 670 -5 776 12 13 2 55 6 92 10 37 3 76 8 85 10 9 1 40 6 67 9 66 9 100 14
160 26 28 5 61 12 75 14 161 29 414 111 546 177 218 109 328 240 307 369 -27
174 -283 337 -698 445 -173 46 -417 87 -585 100 -47 4 -94 9 -105 11 -11 2
-98 6 -195 10 -96 3 -194 7 -218 7 -24 1 -44 1 -45 1z"/>
<path d="M2668 4605 c-2 -3 -35 -7 -73 -10 -38 -4 -72 -8 -76 -10 -3 -3 -31
-7 -60 -10 -30 -4 -60 -8 -68 -11 -8 -3 -30 -7 -50 -10 -73 -11 -350 -77 -461
-111 -702 -212 -964 -545 -665 -846 153 -154 440 -289 821 -387 87 -22 91 -23
194 -45 71 -15 284 -52 345 -60 28 -3 64 -8 80 -10 67 -9 153 -18 285 -30 263
-24 875 -24 1110 0 25 2 72 6 105 9 109 9 433 53 515 71 14 2 48 9 75 15 28 5
59 11 70 14 387 89 628 179 833 312 230 149 309 322 226 494 -82 170 -335 331
-706 448 -113 37 -325 92 -403 106 -16 3 -55 10 -85 16 -61 11 -74 13 -175 30
-188 29 -244 33 -320 22 -38 -6 -99 -14 -135 -17 -36 -4 -76 -8 -90 -11 -136
-23 -794 -23 -915 0 -11 2 -58 7 -105 11 -47 4 -89 9 -94 12 -11 7 -172 14
-178 8z"/>
<path d="M2258 2955 c-2 -2 -23 -6 -48 -10 -25 -3 -72 -11 -105 -17 -33 -5
-73 -12 -90 -15 -136 -21 -505 -116 -665 -171 -390 -135 -666 -304 -787 -482
-32 -47 -66 -120 -56 -120 3 0 1 -6 -4 -12 -5 -7 -10 -41 -12 -75 -17 -369
546 -697 1534 -893 121 -24 361 -60 508 -75 32 -4 66 -8 75 -10 9 -1 58 -6
107 -9 50 -4 110 -9 135 -11 289 -26 1064 -26 1310 0 19 2 71 6 115 10 44 3
96 8 115 10 55 7 122 15 160 20 19 3 54 7 78 10 69 8 116 15 142 20 14 3 45 8
70 11 25 3 122 21 215 40 717 147 1211 377 1387 649 244 375 -181 768 -1087
1005 -148 38 -121 32 -300 68 -292 58 -326 62 -405 48 -24 -4 -47 -9 -50 -11
-3 -1 -27 -6 -55 -9 -27 -4 -75 -11 -105 -16 -30 -5 -77 -12 -105 -15 -27 -3
-63 -8 -80 -10 -29 -4 -131 -14 -205 -21 -294 -24 -944 -24 -1091 1 -13 2 -58
6 -99 9 -101 7 -290 32 -427 57 -130 23 -170 29 -175 24z"/>
</g>
</svg>
